<svg xmlns="http://www.w3.org/2000/svg" viewBox="18.6 8.1 810.7 216.7" width="811" height="217" role="img" aria-label="TerraVault — infrastructure security scanner">
  <title>TerraVault — infrastructure security scanner</title>
  <g transform="translate(24,24) scale(0.7222)"><defs>
    <linearGradient id="mono-beacon-hex" gradientUnits="userSpaceOnUse" x1="30" y1="42" x2="226" y2="214">
      <stop offset="0" stop-color="#14233B"/><stop offset="1" stop-color="#14233B"/>
    </linearGradient>
    <linearGradient id="mono-beacon-shield" gradientUnits="userSpaceOnUse" x1="70" y1="74" x2="186" y2="197">
      <stop offset="0" stop-color="#14233B"/><stop offset="1" stop-color="#14233B"/>
    </linearGradient>
    <linearGradient id="mono-beacon-beam" gradientUnits="userSpaceOnUse" x1="8" y1="128" x2="248" y2="128">
      <stop offset="0" stop-color="#14233B"/><stop offset="1" stop-color="#14233B"/>
    </linearGradient>
    <radialGradient id="mono-beacon-sweep" gradientUnits="userSpaceOnUse" cx="128" cy="128" r="44">
      <stop offset="0" stop-color="#14233B" stop-opacity="0.85"/>
      <stop offset="1" stop-color="#14233B" stop-opacity="0"/>
    </radialGradient>
    <radialGradient id="mono-beacon-core" cx="0.5" cy="0.5" r="0.5">
      <stop offset="0" stop-color="#14233B"/>
      <stop offset="0.45" stop-color="#14233B"/>
      <stop offset="1" stop-color="#14233B" stop-opacity="0"/>
    </radialGradient>
    <filter id="mono-beacon-glow" x="-20%" y="-500%" width="140%" height="1100%">
      <feGaussianBlur stdDeviation="3"/>
    </filter>
  </defs>
    <path d="M 137.53 25.5 L 212.01 68.5 Q 221.53 74 221.53 85 L 221.53 171 Q 221.53 182 212.01 187.5 L 137.53 230.5 Q 128 236 118.47 230.5 L 43.99 187.5 Q 34.47 182 34.47 171 L 34.47 85 Q 34.47 74 43.99 68.5 L 118.47 25.5 Q 128 20 137.53 25.5 Z" fill="none" stroke="#14233B" stroke-width="12" stroke-linejoin="round"/>
    <circle cx="128" cy="128" r="46" fill="none" stroke="#14233B" stroke-width="3.0" stroke-opacity="0.9"/>
    <circle cx="128" cy="128" r="33" fill="none" stroke="#14233B" stroke-width="3.4" stroke-opacity="1.0"/>
    <circle cx="128" cy="128" r="20" fill="none" stroke="#14233B" stroke-width="3.4" stroke-opacity="1.0"/>
    <line x1="44" y1="128" x2="212" y2="128" stroke="#14233B" stroke-width="3" stroke-linecap="round"/>
    <circle cx="128" cy="128" r="8.5" fill="#14233B"/></g>
  <g transform="translate(220.87,160.12)"><path d="M66.48-69.72L42.72-69.72L42.72 0L26.88 0L26.88-69.72L3.12-69.72L3.12-83.76L66.48-83.76L66.48-69.72M103.80 1.44Q96.84 1.44 91.38-0.90Q85.92-3.24 82.14-7.50Q78.36-11.76 76.32-17.82Q74.28-23.88 74.28-31.44Q74.28-38.88 76.26-44.88Q78.24-50.88 81.96-55.14Q85.68-59.40 91.08-61.74Q96.48-64.08 103.32-64.08Q110.64-64.08 116.04-61.56Q121.44-59.04 124.92-54.72Q128.40-50.40 130.14-44.70Q131.88-39 131.88-32.52L131.88-27.48L90.24-27.48L90.24-25.92Q90.24-19.08 94.08-14.94Q97.92-10.80 105.48-10.80Q111.24-10.80 114.90-13.20Q118.56-15.60 121.44-19.32L129.72-10.08Q125.88-4.68 119.22-1.62Q112.56 1.44 103.80 1.44M103.56-52.56Q97.44-52.56 93.84-48.48Q90.24-44.40 90.24-37.92L90.24-36.96L115.92-36.96L115.92-38.04Q115.92-44.52 112.74-48.54Q109.56-52.56 103.56-52.56M160.80 0L145.44 0L145.44-62.64L160.80-62.64L160.80-49.68L161.40-49.68Q162-52.20 163.26-54.54Q164.52-56.88 166.56-58.68Q168.60-60.48 171.42-61.56Q174.24-62.64 177.96-62.64L181.32-62.64L181.32-48.12L176.52-48.12Q168.72-48.12 164.76-45.84Q160.80-43.56 160.80-38.40L160.80 0M207.96 0L192.60 0L192.60-62.64L207.96-62.64L207.96-49.68L208.56-49.68Q209.16-52.20 210.42-54.54Q211.68-56.88 213.72-58.68Q215.76-60.48 218.58-61.56Q221.40-62.64 225.12-62.64L228.48-62.64L228.48-48.12L223.68-48.12Q215.88-48.12 211.92-45.84Q207.96-43.56 207.96-38.40L207.96 0M293.04 0L284.52 0Q279.48 0 276.54-2.94Q273.60-5.88 272.88-10.80L272.16-10.80Q270.60-4.68 265.80-1.62Q261 1.44 253.92 1.44Q244.32 1.44 239.16-3.60Q234-8.64 234-17.04Q234-26.76 240.96-31.50Q247.92-36.24 260.76-36.24L271.44-36.24L271.44-40.80Q271.44-46.08 268.68-48.96Q265.92-51.84 259.80-51.84Q254.40-51.84 251.10-49.50Q247.80-47.16 245.52-43.92L236.40-52.08Q239.88-57.48 245.64-60.78Q251.40-64.08 260.88-64.08Q273.60-64.08 280.20-58.32Q286.80-52.56 286.80-41.76L286.80-12.24L293.04-12.24L293.04 0M259.08-9.72Q264.24-9.72 267.84-12Q271.44-14.28 271.44-18.72L271.44-27L261.60-27Q249.60-27 249.60-19.32L249.60-17.28Q249.60-13.44 252.06-11.58Q254.52-9.72 259.08-9.72M340.32 0L322.32 0L294.96-83.76L311.16-83.76L324-42.96L331.44-15.12L331.80-15.12L339.12-42.96L351.96-83.76L367.68-83.76L340.32 0M433.08 0L424.56 0Q419.52 0 416.58-2.94Q413.64-5.88 412.92-10.80L412.20-10.80Q410.64-4.68 405.84-1.62Q401.04 1.44 393.96 1.44Q384.36 1.44 379.20-3.60Q374.04-8.64 374.04-17.04Q374.04-26.76 381-31.50Q387.96-36.24 400.80-36.24L411.48-36.24L411.48-40.80Q411.48-46.08 408.72-48.96Q405.96-51.84 399.84-51.84Q394.44-51.84 391.14-49.50Q387.84-47.16 385.56-43.92L376.44-52.08Q379.92-57.48 385.68-60.78Q391.44-64.08 400.92-64.08Q413.64-64.08 420.24-58.32Q426.84-52.56 426.84-41.76L426.84-12.24L433.08-12.24L433.08 0M399.12-9.72Q404.28-9.72 407.88-12Q411.48-14.28 411.48-18.72L411.48-27L401.64-27Q389.64-27 389.64-19.32L389.64-17.28Q389.64-13.44 392.10-11.58Q394.56-9.72 399.12-9.72M483 0L483-10.44L482.40-10.44Q481.56-8.04 480.18-5.94Q478.80-3.84 476.70-2.16Q474.60-0.48 471.66 0.48Q468.72 1.44 464.88 1.44Q455.16 1.44 450-4.92Q444.84-11.28 444.84-23.04L444.84-62.64L460.20-62.64L460.20-24.60Q460.20-18.12 462.72-14.70Q465.24-11.28 470.76-11.28Q473.04-11.28 475.26-11.88Q477.48-12.48 479.16-13.74Q480.84-15 481.92-16.86Q483-18.72 483-21.24L483-62.64L498.36-62.64L498.36 0L483 0M539.76 0L531.48 0Q523.56 0 519.84-3.96Q516.12-7.92 516.12-15.12L516.12-88.80L531.48-88.80L531.48-12.24L539.76-12.24L539.76 0M581.40 0L570.36 0Q562.44 0 558.30-4.14Q554.16-8.28 554.16-15.96L554.16-50.40L544.92-50.40L544.92-62.64L549.72-62.64Q553.20-62.64 554.46-64.26Q555.72-65.88 555.72-69.12L555.72-79.80L569.52-79.80L569.52-62.64L582.36-62.64L582.36-50.40L569.52-50.40L569.52-12.24L581.40-12.24" fill="#14233B"/></g>
</svg>